<svg width="150" height="150" viewBox="0 0 150 150" fill="none" xmlns="http://www.w3.org/2000/svg">
<path d="M75 0C65.1508 -3.12148e-07 55.3982 1.93992 46.2987 5.70902C37.1993 9.47813 28.9314 15.0026 21.967 21.967C15.0026 28.9314 9.47813 37.1993 5.70903 46.2987C1.93993 55.3982 -1.4541e-06 65.1509 0 75C0 84.8491 1.93993 94.6018 5.70903 103.701C9.47814 112.801 15.0026 121.069 21.967 128.033C28.9314 134.997 37.1993 140.522 46.2987 144.291C55.3982 148.06 65.1508 150 75 150C84.8491 150 94.6018 148.06 103.701 144.291C112.801 140.522 121.069 134.997 128.033 128.033C134.997 121.069 140.522 112.801 144.291 103.701C148.06 94.6018 150 84.8491 150 75C150 65.1509 148.06 55.3982 144.291 46.2987C140.522 37.1993 134.997 28.9314 128.033 21.967C121.069 15.0026 112.801 9.47813 103.701 5.70902C94.6018 1.93992 84.8491 -1.01787e-06 75 0V0ZM75 15.5411C79.2499 15.541 83.4582 16.5317 87.3846 18.4564C91.311 20.3812 94.8786 23.2023 97.8838 26.7589C100.889 30.3154 103.273 34.5376 104.899 39.1845C106.526 43.8313 107.363 48.8118 107.363 53.8416C107.363 58.8714 106.526 63.8519 104.899 68.4989C103.273 73.1458 100.889 77.3681 97.8839 80.9247C94.8788 84.4813 91.3111 87.3025 87.3847 89.2273C83.4583 91.1521 79.2499 92.1427 75 92.1427C66.417 92.1426 58.1855 88.1073 52.1164 80.9244C46.0473 73.7416 42.6378 63.9996 42.6378 53.8416C42.6379 43.6837 46.0475 33.9418 52.1166 26.7591C58.1857 19.5764 66.417 15.5411 75 15.5411V15.5411ZM79.5948 43.5745C79.1485 43.5745 78.7582 43.6914 78.4235 43.9247C78.0888 44.1479 77.8402 44.472 77.6779 44.898L68.7921 67.6294H70.3897C70.7853 67.6294 71.1709 67.5125 71.5462 67.2792C71.9316 67.0459 72.2109 66.6958 72.3833 66.2292L81.2078 43.5745H79.5948ZM64.6236 48.8846L52.5581 55.1685V56.69L64.6236 62.9889V60.3109C64.6236 60.1081 64.5729 59.9203 64.4714 59.7479C64.37 59.5754 64.2023 59.4337 63.969 59.3222L58.4461 56.4766C57.9694 56.2433 57.4469 56.0609 56.8788 55.929C57.4469 55.7971 57.9694 55.6147 58.4461 55.3814L63.969 52.5513C64.2023 52.4295 64.37 52.2878 64.4714 52.1255C64.5729 51.9531 64.6236 51.7654 64.6236 51.5625V48.8846ZM85.3764 48.8846V51.5625C85.3764 51.7654 85.4271 51.9531 85.5286 52.1255C85.63 52.2878 85.7977 52.4295 86.031 52.5513L91.5539 55.3814C92.0306 55.6147 92.5531 55.7971 93.1211 55.929C92.5531 56.0609 92.0306 56.2433 91.5539 56.4766L86.031 59.3222C85.7977 59.4337 85.63 59.5754 85.5286 59.7479C85.4271 59.9203 85.3764 60.1081 85.3764 60.3109V62.9889L97.4419 56.69V55.1685L85.3764 48.8846ZM75 95.7172C85.712 95.7304 96.2908 98.093 105.99 102.639C115.69 107.184 124.275 113.802 131.139 122.026C124.266 130.233 115.677 136.833 105.978 141.363C96.2789 145.892 85.7047 148.24 75 148.242C64.288 148.229 53.7094 145.866 44.0097 141.32C34.3101 136.775 25.7257 130.157 18.8616 121.933C25.7347 113.726 34.3231 107.126 44.0222 102.597C53.7214 98.0673 64.2954 95.719 75 95.7172V95.7172Z" fill="#8BBEE1"/>
</svg>
